
<?xml version="1.0" encoding="UTF-8" standalone="no"?>
<svg
   xmlns:dc="http://purl.org/dc/elements/1.1/"
   xmlns:cc="http://creativecommons.org/ns#"
   xmlns:rdf="http://www.w3.org/1999/02/22-rdf-syntax-ns#"
   xmlns:svg="http://www.w3.org/2000/svg"
   xmlns="http://www.w3.org/2000/svg"
   xmlns:sodipodi="http://sodipodi.sourceforge.net/DTD/sodipodi-0.dtd"
   xmlns:inkscape="http://www.inkscape.org/namespaces/inkscape"
   width="210mm"
   height="297mm"
   viewBox="0 0 744.09448819 1052.3622047"
   id="svg4349"
   version="1.1"
   inkscape:version="1.0.1 (3bc2e813f5, 2020-09-07)"
   sodipodi:docname="logo.svg">
  <defs
     id="defs4351" />
  <sodipodi:namedview
     id="base"
     pagecolor="#ffffff"
     bordercolor="#666666"
     borderopacity="1.0"
     inkscape:pageopacity="0.0"
     inkscape:pageshadow="2"
     inkscape:zoom="2.8"
     inkscape:cx="101.90623"
     inkscape:cy="595.04543"
     inkscape:document-units="px"
     inkscape:current-layer="layer1"
     showgrid="false"
     inkscape:window-width="1920"
     inkscape:window-height="986"
     inkscape:window-x="-11"
     inkscape:window-y="-11"
     inkscape:window-maximized="1"
     inkscape:document-rotation="0" />
  <metadata
     id="metadata4354">
    <rdf:RDF>
      <cc:Work
         rdf:about="">
        <dc:format>image/svg+xml</dc:format>
        <dc:type
           rdf:resource="http://purl.org/dc/dcmitype/StillImage" />
        <dc:title></dc:title>
      </cc:Work>
    </rdf:RDF>
  </metadata>
  <g
     inkscape:label="Camada 1"
     inkscape:groupmode="layer"
     id="layer1">
    <g
       id="g12"
       transform="matrix(3.7970225,0,0,-3.7970225,266.98444,600.232)"
       style="fill:#008080">
      <path
         d="m 0,0 -9.975,0 0.026,-9.967 4.937,0 15.147,15.132 0,19.914 L 0,25.079 0,0 Z"
         style="fill:#008080;fill-opacity:1;fill-rule:nonzero;stroke:none"
         id="path14"
         inkscape:connector-curvature="0" />
    </g>
    <path
       d="m 153.36349,580.61886 37.8753,0 0,-74.91145 -37.8753,0 0,74.91145 z"
       style="fill:#008080;fill-opacity:1;fill-rule:nonzero;stroke:none"
       id="path16"
       inkscape:connector-curvature="0" />
    <path
       d="m 326.21534,603.23773 37.86011,0 0,-40.71168 -37.86011,0 0,40.71168 z"
       style="fill:#008080;fill-opacity:1;fill-rule:nonzero;stroke:none"
       id="path20"
       inkscape:connector-curvature="0" />
    <path
       d="m 0.95860299,581.15804 37.88289601,0 0,-75.44683 -37.88289601,0 0,75.44683 z"
       style="fill:#008080;fill-opacity:1;fill-rule:nonzero;stroke:none"
       id="path22"
       inkscape:connector-curvature="0" />
    <path
       d="m 210.31883,486.0806 38.19424,0 0,-37.85632 -38.19424,0 0,37.85632 z"
       style="fill:#008080;fill-opacity:1;fill-rule:nonzero;stroke:none"
       id="path24"
       inkscape:connector-curvature="0" />
    <path
       d="m 58.354399,638.07541 76.042961,0 0,-37.84492 -76.042961,0 0,37.84492 z"
       style="fill:#008080;fill-opacity:1;fill-rule:nonzero;stroke:none"
       id="path26"
       inkscape:connector-curvature="0" />
    <path
       d="m 343.24499,486.0806 56.51489,0 0,-37.85632 -56.51489,0 0,37.85632 z"
       style="fill:#008080;fill-opacity:1;fill-rule:nonzero;stroke:none"
       id="path28"
       inkscape:connector-curvature="0" />
    <g
       id="g38"
       transform="matrix(3.7970225,0,0,-3.7970225,76.899816,486.19526)"
       style="fill:#008080" />
    <g
       id="g42"
       transform="matrix(3.7970225,0,0,-3.7970225,343.24386,448.22884)"
       style="fill:#008080">
      <path
         d="m 0,0 c -5.523,0 -10,-4.477 -10,-10 l 20,0 C 10,-4.477 5.521,0 0,0"
         style="fill:#008080;fill-opacity:1;fill-rule:evenodd;stroke:none"
         id="path44"
         inkscape:connector-curvature="0" />
    </g>
    <g
       id="g46"
       transform="matrix(3.7970225,0,0,-3.7970225,571.38417,448.22884)"
       style="fill:#008080">
      <path
         d="m 0,0 c -5.525,0 -10.002,-4.477 -10.002,-10 l 20.001,0 C 9.999,-4.477 5.521,0 0,0"
         style="fill:#008080;fill-opacity:1;fill-rule:evenodd;stroke:none"
         id="path48"
         inkscape:connector-curvature="0" />
    </g>
    <g
       id="g50"
       transform="matrix(3.7970225,0,0,-3.7970225,647.21338,448.22884)"
       style="fill:#008080">
      <path
         d="m 0,0 c -5.525,0 -10.002,-4.477 -10.002,-10 l 20.001,0 C 9.999,-4.477 5.521,0 0,0"
         style="fill:#008080;fill-opacity:1;fill-rule:evenodd;stroke:none"
         id="path52"
         inkscape:connector-curvature="0" />
    </g>
    <g
       id="g54"
       transform="matrix(3.7970225,0,0,-3.7970225,364.18673,524.55658)"
       style="fill:#008080">
      <path
         d="m 0,0 c -5.523,0 -10,-4.477 -10,-10 l 20,0 C 10,-4.477 5.521,0 0,0"
         style="fill:#008080;fill-opacity:1;fill-rule:evenodd;stroke:none"
         id="path56"
         inkscape:connector-curvature="0" />
    </g>
    <g
       id="g58"
       transform="matrix(3.7970225,0,0,-3.7970225,364.18673,598.49296)"
       style="fill:#008080">
      <path
         d="M 0,0 C 0,5.523 -4.477,10.001 -10,10.001 L -10,-10 c 5.523,0 10,4.479 10,10"
         style="fill:#008080;fill-opacity:1;fill-rule:evenodd;stroke:none"
         id="path60"
         inkscape:connector-curvature="0" />
    </g>
    <g
       id="g62"
       transform="matrix(3.7970225,0,0,-3.7970225,153.26665,524.42329)"
       style="fill:#008080">
      <path
         d="m 0,0 c 0,-5.522 4.477,-10 10,-10 l 0,20 C 4.477,10 0,5.522 0,0"
         style="fill:#008080;fill-opacity:1;fill-rule:evenodd;stroke:none"
         id="path64"
         inkscape:connector-curvature="0" />
    </g>
    <g
       id="g66"
       transform="matrix(3.7970225,0,0,-3.7970225,229.20711,638.07616)"
       style="fill:#008080">
      <path
         d="m 0,0 c 5.522,0 10,4.477 10,10 l -20,0 C -10,4.477 -5.522,0 0,0"
         style="fill:#008080;fill-opacity:1;fill-rule:evenodd;stroke:none"
         id="path68"
         inkscape:connector-curvature="0" />
    </g>
    <g
       id="g70"
       transform="matrix(3.7970225,0,0,-3.7970225,647.20612,637.9429)"
       style="fill:#008080">
      <path
         d="m 0,0 c 5.522,0 10,4.477 10,10 l -20,0 C -10,4.477 -5.522,0 0,0"
         style="fill:#008080;fill-opacity:1;fill-rule:evenodd;stroke:none"
         id="path72"
         inkscape:connector-curvature="0" />
    </g>
    <g
       id="g78"
       transform="matrix(3.7970225,0,0,-3.7970225,305.46651,580.62038)"
       style="fill:#008080">
      <path
         d="m 0,0 -9.977,0.008 c -0.003,-0.046 -0.011,-0.09 -0.011,-0.141 0,-2.761 -2.239,-5 -5,-5 L -15,-15.132 C -6.701,-15.053 0,-8.313 0,0"
         style="fill:#008080;fill-opacity:1;fill-rule:evenodd;stroke:none"
         id="path80"
         inkscape:connector-curvature="0" />
    </g>
    <path
       style="fill:#008080;fill-opacity:1;fill-rule:evenodd;stroke:none;stroke-width:3.79702"
       d="M 76.899056,448.22428 H 57.91394 l -26.450893,37.85632 45.436009,0 z"
       id="path87"
       sodipodi:nodetypes="ccccc" />
    <path
       style="fill:#008080;fill-opacity:1;fill-rule:evenodd;stroke:none;stroke-width:3.79702"
       d="m 76.899815,486.19526 c 20.967159,0 37.970225,-16.99927 37.970225,-37.97023 l -51.363082,0 c 0,20.97096 -7.574301,37.97023 13.392857,37.97023"
       id="path85"
       sodipodi:nodetypes="cccc" />
    <path
       style="fill:#008080;fill-opacity:1;fill-rule:evenodd;stroke:none;stroke-width:3.79702"
       d="m 0.95936163,505.68274 37.88289337,0.0304 c 0.01519,-0.17467 0.04177,-0.34174 0.04177,-0.53159 0,-10.48737 8.501534,-18.98511 18.985113,-18.98511 l 0.04556,-37.97022 C 26.407006,448.52616 0.95936163,474.11809 0.95936163,505.68274"
       id="path76" />
    <g
       id="g82"
       transform="matrix(3.7970225,0,0,-3.7970225,191.33332,580.62038)"
       style="fill:#008080">
      <path
         d="m 0,0 -9.977,0.008 c -0.005,-0.046 -0.011,-0.09 -0.011,-0.141 0,-2.761 -2.239,-5 -5,-5 L -15,-15.132 C -6.702,-15.053 0,-8.313 0,0"
         style="fill:#008080;fill-opacity:1;fill-rule:evenodd;stroke:none"
         id="path84"
         inkscape:connector-curvature="0" />
    </g>
    <g
       id="g86"
       transform="matrix(3.7970225,0,0,-3.7970225,153.3631,505.68122)"
       style="fill:#008080">
      <path
         d="m 0,0 9.977,-0.008 c 0.003,0.046 0.011,0.09 0.011,0.141 0,2.761 2.239,5 5,5 L 15,15.132 C 6.701,15.053 0,8.313 0,0"
         style="fill:#008080;fill-opacity:1;fill-rule:evenodd;stroke:none"
         id="path88"
         inkscape:connector-curvature="0" />
    </g>
    <g
       id="g90"
       transform="matrix(3.7970225,0,0,-3.7970225,248.27766,448.49007)"
       style="fill:#008080">
      <path
         d="m 0,0 -0.008,-9.977 c 0.046,-0.004 0.09,-0.011 0.141,-0.011 2.761,0 5,-2.239 5,-5 L 15.132,-15 C 15.053,-6.702 8.313,0 0,0"
         style="fill:#008080;fill-opacity:1;fill-rule:evenodd;stroke:none"
         id="path92"
         inkscape:connector-curvature="0" />
    </g>
    <g
       id="g94"
       transform="matrix(3.7970225,0,0,-3.7970225,399.77278,448.49007)"
       style="fill:#008080">
      <path
         d="m 0,0 -0.008,-9.977 c 0.046,-0.004 0.09,-0.011 0.141,-0.011 2.761,0 5,-2.239 5,-5 L 15.132,-15 C 15.053,-6.702 8.313,0 0,0"
         style="fill:#008080;fill-opacity:1;fill-rule:evenodd;stroke:none"
         id="path96"
         inkscape:connector-curvature="0" />
    </g>
    <g
       id="g98"
       transform="matrix(3.7970225,0,0,-3.7970225,456.96163,504.93585)"
       style="fill:#008080">
      <path
         d="m 0,0 -9.977,0.008 c -0.003,-0.046 -0.011,-0.09 -0.011,-0.141 0,-2.761 -2.239,-5 -5,-5 L -15,-15.132 C -6.701,-15.053 0,-8.313 0,0"
         style="fill:#008080;fill-opacity:1;fill-rule:evenodd;stroke:none"
         id="path100"
         inkscape:connector-curvature="0" />
    </g>
    <g
       id="g102"
       transform="matrix(3.7970225,0,0,-3.7970225,400.0363,524.69024)"
       style="fill:#008080">
      <path
         d="m 0,0 -0.008,-9.976 c 0.047,-0.005 0.09,-0.012 0.141,-0.012 2.762,0 5,-2.238 5,-5 l 10,-0.012 C 15.053,-6.702 8.314,0 0,0"
         style="fill:#008080;fill-opacity:1;fill-rule:evenodd;stroke:none"
         id="path104"
         inkscape:connector-curvature="0" />
    </g>
    <g
       id="g106"
       transform="matrix(3.7970225,0,0,-3.7970225,551.81316,524.69024)"
       style="fill:#008080">
      <path
         d="m 0,0 -0.008,-9.976 c 0.047,-0.005 0.09,-0.012 0.141,-0.012 2.762,0 5,-2.238 5,-5 l 10,-0.012 C 15.053,-6.702 8.314,0 0,0"
         style="fill:#008080;fill-opacity:1;fill-rule:evenodd;stroke:none"
         id="path108"
         inkscape:connector-curvature="0" />
    </g>
    <g
       id="g110"
       transform="matrix(3.7970225,0,0,-3.7970225,533.94057,562.61414)"
       style="fill:#008080">
      <path
         d="m 0,0 0.008,9.976 c -0.047,0.005 -0.09,0.012 -0.141,0.012 -2.762,0 -5,2.238 -5,5 l -10,0.012 C -15.053,6.701 -8.314,0 0,0"
         style="fill:#008080;fill-opacity:1;fill-rule:evenodd;stroke:none"
         id="path112"
         inkscape:connector-curvature="0" />
    </g>
    <g
       id="g114"
       transform="matrix(3.7970225,0,0,-3.7970225,476.75174,505.68274)"
       style="fill:#008080">
      <path
         d="m 0,0 9.976,-0.008 c 0.004,0.047 0.011,0.09 0.011,0.141 0,2.762 2.239,5 5,5 l 0.012,10 C 6.701,15.053 0,8.314 0,0"
         style="fill:#008080;fill-opacity:1;fill-rule:evenodd;stroke:none"
         id="path116"
         inkscape:connector-curvature="0" />
    </g>
    <g
       id="g118"
       transform="matrix(3.7970225,0,0,-3.7970225,476.98524,638.07616)"
       style="fill:#008080">
      <path
         d="m 0,0 0.008,9.976 c -0.047,0.004 -0.09,0.011 -0.141,0.011 -2.762,0 -5,2.239 -5,5 l -10,0.012 C -15.053,6.701 -8.314,0 0,0"
         style="fill:#008080;fill-opacity:1;fill-rule:evenodd;stroke:none"
         id="path120"
         inkscape:connector-curvature="0" />
    </g>
    <g
       id="g122"
       transform="matrix(3.7970225,0,0,-3.7970225,609.00203,580.8873)"
       style="fill:#008080">
      <path
         d="m 0,0 -9.976,0.007 c -0.004,-0.046 -0.011,-0.089 -0.011,-0.141 0,-2.762 -2.239,-5 -5,-5 l -0.012,-9.999 C -6.701,-15.054 0,-8.315 0,0"
         style="fill:#008080;fill-opacity:1;fill-rule:evenodd;stroke:none"
         id="path124"
         inkscape:connector-curvature="0" />
    </g>
    <g
       id="g126"
       transform="matrix(3.7970225,0,0,-3.7970225,58.326297,638.11338)"
       style="fill:#008080">
      <path
         d="m 0,0 0.008,9.977 c -0.047,0.004 -0.09,0.011 -0.141,0.011 -2.762,0 -5,2.239 -5,5 l -10,0.012 C -15.054,6.702 -8.314,0 0,0"
         style="fill:#008080;fill-opacity:1;fill-rule:evenodd;stroke:none"
         id="path128"
         inkscape:connector-curvature="0" />
    </g>
    <g
       id="g130"
       transform="matrix(3.7970225,0,0,-3.7970225,267.17733,580.58696)"
       style="fill:#008080">
      <path
         d="m 0,0 c -0.004,-0.046 -0.012,-0.09 -0.012,-0.141 0,-2.76 -2.238,-5 -5,-5 L 0,-5.141 0,0 Z"
         style="fill:#008080;fill-opacity:1;fill-rule:evenodd;stroke:none"
         id="path132"
         inkscape:connector-curvature="0" />
    </g>
    <path
       d="m 646.57393,485.26804 38.19426,0 0,-37.85632 -38.19426,0 0,37.85632 z"
       style="fill:#008080;fill-opacity:1;fill-rule:nonzero;stroke:none"
       id="path134"
       inkscape:connector-curvature="0" />
    <g
       id="g136"
       transform="matrix(3.7970225,0,0,-3.7970225,741.72348,580.62038)"
       style="fill:#008080">
      <path
         d="m 0,0 -9.977,0.008 c -0.003,-0.046 -0.011,-0.09 -0.011,-0.141 0,-2.761 -2.239,-5 -5,-5 L -15,-15.132 C -6.701,-15.053 0,-8.313 0,0"
         style="fill:#008080;fill-opacity:1;fill-rule:evenodd;stroke:none"
         id="path138"
         inkscape:connector-curvature="0" />
    </g>
    <g
       id="g140"
       transform="matrix(3.7970225,0,0,-3.7970225,684.53464,447.67636)"
       style="fill:#008080">
      <path
         d="m 0,0 -0.008,-9.977 c 0.046,-0.004 0.09,-0.011 0.141,-0.011 2.761,0 5,-2.239 5,-5 L 15.132,-15 C 15.053,-6.702 8.313,0 0,0"
         style="fill:#008080;fill-opacity:1;fill-rule:evenodd;stroke:none"
         id="path142"
         inkscape:connector-curvature="0" />
    </g>
    <g
       id="g144"
       transform="matrix(3.7970225,0,0,-3.7970225,722.91649,580.58696)"
       style="fill:#008080">
      <path
         d="m 0,0 c -0.004,-0.046 -0.012,-0.09 -0.012,-0.141 0,-2.76 -2.238,-5 -5,-5 L 0,-5.141 0,0 Z"
         style="fill:#008080;fill-opacity:1;fill-rule:evenodd;stroke:none"
         id="path146"
         inkscape:connector-curvature="0" />
    </g>
    <g
       id="g148"
       transform="matrix(3.7970225,0,0,-3.7970225,58.355917,600.232)"
       style="fill:#008080">
      <path
         d="m 0,0 c -0.045,0.005 -0.089,0.012 -0.14,0.012 -2.76,0 -5,2.238 -5,5 L -5.14,0 0,0 Z"
         style="fill:#008080;fill-opacity:1;fill-rule:evenodd;stroke:none"
         id="path150"
         inkscape:connector-curvature="0" />
    </g>
    <path
       d="m 400.00668,562.39315 -35.8211,0 0,-37.70063 35.8211,0 0,37.70063 z"
       style="fill:#008080;fill-opacity:1;fill-rule:evenodd;stroke:none"
       id="path152"
       inkscape:connector-curvature="0" />
    <path
       d="m 552.05086,638.34879 -75.56835,0 0,-38.19425 75.56835,0 0,38.19425 z"
       style="fill:#008080;fill-opacity:1;fill-rule:nonzero;stroke:none"
       id="path154"
       inkscape:connector-curvature="0" />
    <path
       d="m 571.3815,486.14135 -37.97024,0 0,-37.97023 37.97024,0 0,37.97023 z"
       style="fill:#008080;fill-opacity:1;fill-rule:evenodd;stroke:none"
       id="path156"
       inkscape:connector-curvature="0" />
    <path
       d="m 551.78506,562.35139 -17.81183,0 0,-37.61711 17.81183,0 0,37.61711 z"
       style="fill:#008080;fill-opacity:1;fill-rule:evenodd;stroke:none"
       id="path158"
       inkscape:connector-curvature="0" />
    <path
       d="m 741.72348,580.61886 -37.70062,0 0,-76.01259 37.70062,0 0,76.01259 z"
       style="fill:#008080;fill-opacity:1;fill-rule:nonzero;stroke:none"
       id="path160"
       inkscape:connector-curvature="0" />
    <g
       id="g162"
       transform="matrix(3.7970225,0,0,-3.7970225,647.20612,637.81301)"
       style="fill:#008080">
      <path
         d="M 0,0 0,9.929 9.904,9.93 9.904,0.001 0,0 Z"
         style="fill:#008080;fill-opacity:1;fill-rule:nonzero;stroke:none"
         id="path164"
         inkscape:connector-curvature="0" />
    </g>
  </g>
</svg>
